<?xml version="1.0" encoding="UTF-8" standalone="no"?>
<!-- Created with Inkscape (http://www.inkscape.org/) -->

<svg
   viewBox="0 0 35.349998 38.720001"
   id="svg2"
   version="1.1"
   inkscape:version="1.3.2 (091e20e, 2023-11-25, custom)"
   sodipodi:docname="Ou.svg"
   xmlns:inkscape="http://www.inkscape.org/namespaces/inkscape"
   xmlns:sodipodi="http://sodipodi.sourceforge.net/DTD/sodipodi-0.dtd"
   xmlns="http://www.w3.org/2000/svg"
   xmlns:svg="http://www.w3.org/2000/svg"
   xmlns:rdf="http://www.w3.org/1999/02/22-rdf-syntax-ns#"
   xmlns:cc="http://creativecommons.org/ns#"
   xmlns:dc="http://purl.org/dc/elements/1.1/">
  <defs
     id="defs4" />
  <sodipodi:namedview
     id="base"
     pagecolor="#ffffff"
     bordercolor="#666666"
     borderopacity="1.0"
     inkscape:pageopacity="0.0"
     inkscape:pageshadow="2"
     inkscape:zoom="14.178719"
     inkscape:cx="17.702587"
     inkscape:cy="19.360001"
     inkscape:document-units="px"
     inkscape:current-layer="layer1"
     showgrid="false"
     fit-margin-top="0"
     fit-margin-left="0"
     fit-margin-right="0"
     fit-margin-bottom="0"
     inkscape:window-width="1292"
     inkscape:window-height="745"
     inkscape:window-x="-8"
     inkscape:window-y="-8"
     inkscape:window-maximized="1"
     inkscape:showpageshadow="0"
     inkscape:pagecheckerboard="1"
     inkscape:deskcolor="#d1d1d1" />
  <metadata
     id="metadata7">
    <rdf:RDF>
      <cc:Work
         rdf:about="">
        <dc:format>image/svg+xml</dc:format>
        <dc:type
           rdf:resource="http://purl.org/dc/dcmitype/StillImage" />
      </cc:Work>
    </rdf:RDF>
  </metadata>
  <g
     inkscape:label="Layer 1"
     inkscape:groupmode="layer"
     id="layer1"
     transform="matrix(0.66418335,0,0,0.66418335,-414.28053,-493.91476)">
    <path
       sodipodi:nodetypes="cccccccccc"
       inkscape:connector-curvature="0"
       id="path3022"
       d="m 679.6057,679.99766 c -10.39196,2.40995 -20.90855,5.02646 -30.89286,8.68304 -3.58886,15.23626 -5.05989,30.99595 -7.67838,46.45458 -3.0916,20.04977 -5.86811,40.15996 -9.28591,60.15256 11.66136,0.83366 24.05976,0.11881 36.00447,0.35714 20.02976,0 40.05952,0 60.08928,0 -1.40818,-13.61368 -4.1343,-27.72903 -6.02163,-41.53472 -3.51635,-21.55897 -5.98246,-43.34298 -10.31765,-64.7376 -2.12982,-2.62994 -6.73433,-2.30255 -9.71526,-3.76323 -7.34688,-1.94978 -14.67481,-4.51323 -22.18206,-5.61177 z"
       style="display:inline;fill:#ffffff;fill-opacity:1;stroke:none"
       transform="matrix(0.41556411,0,0,0.41556411,367.77226,466.25756)" />
    <path
       id="path3010"
       style="fill:#d0d0d0"
       transform="matrix(0.41556411,0,0,0.41556411,367.77226,466.25756)"
       d="m 680.00283,677.79242 c -1.90319,0 -32.87887,7.78725 -33.77501,8.49151 -0.14928,0.11731 -3.85596,24.24254 -8.23677,53.60978 -4.38081,29.36724 -8.12969,54.41024 -8.33584,55.64774 l -0.37504,2.25025 h 50.72266 50.72266 l -0.37504,-2.25025 c -0.20614,-1.2375 -3.96211,-26.2805 -8.34292,-55.64774 -4.38076,-29.36724 -8.08749,-53.49247 -8.23677,-53.60978 -0.89614,-0.70426 -31.86474,-8.49151 -33.76793,-8.49151 z m 0,2.69605 15.16443,4.11839 c 8.34302,2.26639 15.47896,4.47442 15.85083,4.90385 0.37188,0.42943 3.9433,23.052 7.93957,50.27685 3.99631,27.2249 7.49434,50.73864 7.77682,52.25114 l 0.51656,2.75266 h -47.24821 -47.25529 l 0.51657,-2.75266 c 0.28248,-1.5125 3.78049,-25.02624 7.77681,-52.25114 3.99631,-27.22485 7.57476,-49.84742 7.94664,-50.27685 0.37187,-0.42943 7.50074,-2.63746 15.84376,-4.90385 z m 11.70414,11.84567 c -1.59094,-0.056 -3.5444,0.2229 -5.7247,0.87038 -5.96374,1.77105 -20.10187,2.13342 -22.99078,0.58733 -2.96188,-1.58515 -3.22377,0.49127 -0.4175,3.29754 2.51927,2.51927 9.38732,4.46622 11.39279,3.22677 0.64143,-0.39642 1.03313,0.71341 1.03313,2.91543 v 3.55936 h -6.50309 c -7.28228,0 -8.10738,1.03007 -3.248,4.04762 2.29457,1.42489 4.20852,1.85176 6.50309,1.44356 l 3.248,-0.58026 v 4.54296 4.54297 h -5.753 c -3.1625,-0.003 -7.48825,-0.49167 -9.61664,-1.08267 -2.32099,-0.64445 -4.23143,-0.70781 -4.77648,-0.16276 -1.14019,1.14019 2.6328,6.09526 5.53364,7.26733 3.13275,1.26579 4.8985,1.14828 9.73693,-0.63687 3.36101,-1.24005 7.79768,-1.58289 19.12715,-1.49309 14.07152,0.11153 14.74693,0.0273 14.74693,-1.86106 0,-3.86461 -3.99036,-5.21489 -13.22554,-4.46512 l -8.39952,0.67932 0.42457,-3.63012 c 0.32553,-2.7884 0.96128,-3.76784 2.75267,-4.21745 1.28301,-0.32202 2.80549,-0.29556 3.37538,0.0566 1.22585,0.75762 5.07368,-1.11067 5.07368,-2.46254 0,-1.76316 -5.4335,-3.8828 -7.28855,-2.84466 -2.32896,1.30335 -3.39841,0.4561 -3.92025,-3.09941 -0.42085,-2.86737 -0.26276,-3.00058 4.13961,-3.57351 6.08935,-0.79245 9.07177,-2.09463 9.07177,-3.96978 0,-1.83595 -1.64373,-2.86463 -4.29529,-2.95788 z m 6.98427,11.63338 c 0.0403,0.0187 0.0798,0.0383 0.1203,0.0566 -0.003,-0.009 -0.003,-0.0193 -0.007,-0.0283 -0.0338,-0.0111 -0.0792,-0.0173 -0.11322,-0.0283 z m -0.41042,26.37323 c -0.24383,-0.0112 -0.49956,-0.007 -0.76424,0.0142 -1.27047,0.0997 -2.78577,0.56468 -4.61372,1.39403 -2.6316,1.19396 -6.58621,2.00363 -9.82893,2.01673 l -5.42042,0.0283 2.29979,2.44131 c 1.26417,1.34571 3.25351,2.61063 4.42266,2.80928 1.87433,0.31848 1.50139,0.953 -3.12771,5.3638 -5.60374,5.33959 -6.42951,7.67861 -3.29754,9.35483 1.58772,0.84971 2.57133,0.50827 5.25059,-1.83276 2.59438,-2.2668 3.65365,-2.65163 4.96046,-1.8186 1.27129,0.81038 2.87547,0.42363 6.84275,-1.63461 5.84089,-3.03039 6.99842,-3.25745 6.99842,-1.3728 0,1.9202 -6.67074,5.3089 -13.00617,6.60923 -7.45988,1.53112 -9.28742,2.74383 -5.44165,3.59474 1.62132,0.35873 3.48778,0.81545 4.15377,1.01899 0.666,0.20355 3.58866,-0.24542 6.48893,-0.99776 2.90032,-0.75233 5.61488,-1.15192 6.03606,-0.89161 2.03072,1.25505 0.14992,2.16839 -6.48186,3.15602 -14.49489,2.15863 -18.86975,2.39023 -21.87273,1.14635 -3.62796,-1.50274 -4.55727,-0.72415 -3.05695,2.56869 1.6056,3.52385 4.85573,4.50492 10.56486,3.19847 3.9095,-0.89462 4.93205,-0.83175 5.68932,0.34673 1.64459,2.55942 0.5076,4.24214 -3.83533,5.68932 -5.21226,1.73685 -4.62835,3.24801 1.25249,3.24801 5.53968,0 9.08399,-1.34116 10.48703,-3.96271 0.91204,-1.70416 0.67606,-2.47288 -1.38695,-4.53589 l -2.49085,-2.49084 2.20072,-0.45996 c 1.20914,-0.25423 4.07447,-0.60635 6.36864,-0.77839 3.89771,-0.29228 4.20734,-0.12133 4.74817,2.58284 0.31833,1.59165 0.58026,4.6153 0.58026,6.72245 v 3.83533 l -7.25317,0.29013 -7.2461,0.2972 4.61373,2.12996 c 2.53807,1.17367 5.91396,3.76419 7.50084,5.753 2.94621,3.69251 6.00777,4.59252 8.18723,2.41301 1.44761,-1.44761 1.63326,-16.7935 0.26183,-21.57553 l -0.94115,-3.26216 6.4394,0.65809 c 5.97305,0.61196 6.4394,0.51711 6.4394,-1.32326 0,-3.71703 -3.22915,-5.46496 -8.73918,-4.73402 -4.04673,0.53682 -5.08015,0.36266 -5.58318,-0.94822 -0.3396,-0.88499 -1.34495,-1.61339 -2.2361,-1.61339 -1.28377,0 -1.08181,-0.64033 0.96945,-3.07817 1.42389,-1.69219 2.58284,-3.69233 2.58284,-4.44389 0,-3.89831 -10.37701,-6.01347 -14.43558,-2.94373 -2.32372,1.75758 -6.00889,1.999 -4.97461,0.32551 0.3889,-0.62926 0.67238,-2.37284 0.62978,-3.87072 -0.0743,-2.6149 0.16825,-2.74292 5.97237,-3.26923 6.99594,-0.63437 8.4763,-1.60962 6.90644,-4.54296 -0.89978,-1.68124 -2.10732,-2.54652 -3.81411,-2.6253 z m -39.66246,3.57352 c -0.76747,0.0863 -0.62858,0.76477 -0.21229,2.51915 0.37317,1.57256 1.5629,3.60149 2.63945,4.51465 2.39479,2.03134 2.63756,7.36856 0.37504,8.23677 -2.33341,0.89542 -2.42008,0.82563 -2.42008,-1.89644 0,-1.37495 -0.90263,-3.4005 -2.00258,-4.5005 -1.1,-1.1 -3.12551,-1.99551 -4.50051,-1.99551 -2.81768,0 -3.16201,0.75188 -1.08974,2.38471 0.77497,0.61058 1.72308,3.08817 2.10872,5.49825 l 0.70055,4.38021 -3.60889,-0.67932 c -4.1255,-0.77395 -4.65754,0.36665 -1.60631,3.41783 2.58206,2.58209 7.03147,2.54555 10.36672,-0.0778 2.55936,-2.01317 2.63237,-2.01569 2.63237,-0.13444 0,1.37959 -1.32385,2.43844 -4.59249,3.68673 -4.37655,1.67143 -7.27235,1.65531 -13.27507,-0.0849 -2.13218,-0.61816 -2.29163,-0.44908 -1.62754,1.71246 1.04022,3.38583 2.44774,4.89677 4.56419,4.89677 1.75579,0 1.75331,0.16518 -0.0991,4.24576 -2.56519,5.6515 -2.56042,8.75334 0.007,8.75334 2.66348,0 5.27773,-4.24471 5.41334,-8.78872 0.0986,-3.30452 0.53446,-3.9026 4.00516,-5.47703 2.14439,-0.97276 4.11308,-1.55499 4.37313,-1.29495 0.71997,0.71998 -0.8581,15.71109 -1.61338,15.32718 -4.95044,-2.51619 -6.23842,-3.01738 -6.66584,-2.58991 -0.27741,0.27741 0.96043,3.03674 2.75266,6.12805 3.75593,6.47834 6.62974,7.45039 8.69673,2.94372 0.69371,-1.5125 1.63327,-9.27698 2.0875,-17.25193 0.45423,-7.97495 1.3061,-16.06649 1.89644,-17.98786 2.67873,-8.71849 0.36918,-13.99088 -6.80737,-15.51117 -1.24647,-0.26405 -2.03744,-0.42681 -2.49792,-0.37504 z" />
    <path
       id="path3008"
       style="fill:#b0b0b0"
       transform="matrix(0.41556411,0,0,0.41556411,367.77226,466.25756)"
       d="m 680.00283,677.79242 c -2.48176,0 -32.28378,7.98156 -33.26552,8.90901 -0.73821,0.69739 -16.73536,104.95248 -16.73536,109.06646 0,2.00427 0.47446,2.02381 50.00088,2.02381 49.52642,0 49.9938,-0.0195 49.9938,-2.02381 0,-4.11398 -15.99007,-108.36907 -16.72828,-109.06646 -0.98174,-0.92745 -30.78376,-8.90901 -33.26552,-8.90901 z m 0.11322,3.04987 c 1.66371,-0.0715 2.69828,0.27439 4.63495,0.78546 2.6125,0.68942 9.71065,2.61528 15.77299,4.27406 l 11.01775,3.01449 7.35224,49.68953 c 4.0428,27.32818 7.58255,51.15003 7.86172,52.93753 l 0.5095,3.248 h -47.26237 -47.26237 l 0.50242,-3.248 c 0.27922,-1.7875 3.81888,-25.60935 7.86173,-52.93753 l 7.35223,-49.68953 11.01775,-3.01449 c 13.34556,-3.65166 17.86862,-4.94035 20.64146,-5.05952 z m 11.32202,11.71121 c -1.56946,-0.0155 -3.37944,0.22655 -5.15152,0.76424 -5.6114,1.70265 -20.5275,1.94987 -23.44366,0.38919 -1.69325,-0.90644 -1.96815,-0.80149 -1.68415,0.64394 0.5745,2.92415 5.34285,5.71055 9.76524,5.71055 3.9634,0 4.07593,0.0999 4.07593,3.3683 v 3.36123 l -6.75076,0.0283 -6.75075,0.0354 2.80928,2.46962 c 2.78962,2.45422 4.14028,2.85345 8.44198,2.505 2.0318,-0.16458 2.25025,0.25907 2.25025,4.38728 v 4.57127 l -4.25283,0.16275 c -4.59624,0.17037 -4.86159,0.15341 -12.11457,-0.81377 -4.78351,-0.63789 -4.84743,-0.61199 -3.68673,1.55678 0.64953,1.21368 2.6137,3.07818 4.36605,4.14669 3.90155,2.37895 5.36857,2.41594 10.3172,0.2689 3.13017,-1.35813 6.792,-1.64693 19.12006,-1.5214 14.50492,0.14769 15.24935,0.057 15.24935,-1.79737 0,-3.52401 -4.82982,-5.02342 -13.90486,-4.3236 l -8.10232,0.62271 0.65809,-3.3966 c 0.80543,-4.13515 1.78071,-4.87 6.53847,-4.8897 4.48192,-0.0186 5.41179,-1.15961 2.83051,-3.49568 -1.42954,-1.29372 -2.83335,-1.58569 -5.36381,-1.11097 -3.32209,0.62323 -3.43982,0.53607 -3.83534,-2.85173 -0.45906,-3.93217 0.35067,-4.55712 5.93699,-4.55712 3.37056,0 7.24609,-2.23101 7.24609,-4.17499 0,-1.28933 -1.94841,-2.0333 -4.56419,-2.0592 z m 6.24834,38.57272 c -1.40876,0.036 -3.02083,0.3802 -4.70571,1.05436 -2.21099,0.88466 -6.26214,1.61339 -9.00101,1.61339 -2.73887,0 -4.98169,0.37732 -4.98169,0.84207 0,1.30734 3.28038,3.90324 5.50533,4.35898 1.72588,0.35351 1.27123,1.13631 -3.30461,5.71055 -3.00204,3.00099 -5.16591,6.01177 -4.98877,6.94181 0.49551,2.6012 4.67849,2.59752 7.45131,-0.007 1.64323,-1.54374 3.41505,-2.21595 5.31427,-2.01674 1.56655,0.16432 4.66502,-0.63282 6.89228,-1.76906 4.74947,-2.423 6.13512,-2.5746 6.13512,-0.67933 0,2.08625 -4.01746,4.30877 -11.12388,6.14928 -3.50753,0.90841 -7.05093,2.02803 -7.87588,2.49084 -2.5383,1.42392 1.38185,2.29723 7.28147,1.62047 2.86765,-0.32895 6.29473,-0.72037 7.61406,-0.87038 1.31934,-0.15001 2.57648,0.23671 2.79512,0.8633 0.81532,2.336 -24.15513,5.24483 -28.7367,3.34707 -1.66254,-0.68862 -3.24602,-1.02803 -3.52398,-0.75008 -1.1105,1.1105 2.06047,5.852 4.28821,6.41109 2.30712,0.57905 8.62832,-0.078 11.54139,-1.19588 1.07698,-0.41327 1.41231,0.2581 1.33741,2.66775 -0.0895,2.87789 -0.56073,3.36886 -4.46512,4.67033 -3.12764,1.04254 -3.97748,1.70194 -3.00033,2.32102 2.08707,1.32226 7.54256,1.05265 11.39986,-0.55903 4.48983,-1.87599 4.8386,-5.76418 0.7147,-7.93249 l -2.75267,-1.44356 2.505,-0.52364 c 1.375,-0.2868 4.58672,-0.76251 7.13995,-1.05437 5.32156,-0.60826 5.82049,0.13174 5.84499,8.65428 l 0.0142,4.74817 h -7.20364 c -7.55385,0 -8.01847,0.88609 -1.55678,2.9508 2.42563,0.77505 4.70378,2.56801 6.49601,5.10199 3.06896,4.33908 6.53184,5.18919 8.2297,2.01673 1.25884,-2.35216 1.32008,-15.12532 0.0991,-20.38671 l -0.88454,-3.82119 6.4111,0.6864 c 5.93516,0.63561 6.41109,0.54236 6.41109,-1.27373 0,-1.07883 -0.89256,-2.77215 -1.98135,-3.75749 -1.66352,-1.50547 -2.74208,-1.64211 -6.75076,-0.88454 -4.25884,0.80491 -5.00165,0.66302 -6.92058,-1.30203 -2.1072,-2.15779 -2.10978,-2.23506 -0.24767,-3.92025 2.50486,-2.2669 2.48458,-7.02259 -0.0354,-8.37122 -3.03386,-1.62367 -7.78485,-1.22265 -12.20656,1.03314 -2.23139,1.13832 -4.20797,1.92008 -4.39436,1.73368 -0.1864,-0.1864 -0.0902,-2.18875 0.21229,-4.44389 l 0.55195,-4.09716 6.09266,-0.63686 c 6.70953,-0.70129 8.05986,-1.46192 7.09749,-3.96979 -0.607,-1.58184 -2.38608,-2.38106 -4.73402,-2.32101 z m -38.70008,2.81635 c -0.30764,0.008 -0.54328,0.0762 -0.6864,0.21936 -0.73458,0.73457 2.56512,7.62822 3.65135,7.62822 0.57807,0 1.04729,1.79809 1.04729,3.99809 0,3.33328 -0.32884,4.00516 -1.99551,4.00516 -1.46667,0 -2.00258,-0.67167 -2.00258,-2.505 0,-3.22071 -3.29585,-6.49601 -6.53139,-6.49601 h -2.52623 l 1.9672,2.74559 c 1.08255,1.5125 2.10715,4.10301 2.27856,5.75301 0.29837,2.87209 0.15108,2.99631 -3.43907,2.88711 -4.35671,-0.13252 -4.50845,0.17821 -1.578,3.29754 2.66123,2.83279 5.32092,2.92309 9.58126,0.32551 3.1669,-1.93091 3.248,-1.93193 3.248,-0.0778 0,1.33029 -1.34166,2.41434 -4.45097,3.60182 -4.24751,1.62214 -8.13892,1.60954 -13.28922,-0.0425 -2.12869,-0.68274 -2.1809,-0.56884 -1.14635,2.39886 0.66724,1.91416 1.97962,3.34524 3.3966,3.70088 l 2.30686,0.58025 -2.03088,4.88263 c -2.12407,5.11104 -1.88798,7.94664 0.65809,7.94664 2.22567,0 4.54719,-4.13496 4.81893,-8.59058 0.20894,-3.4252 0.73267,-4.18137 4.23869,-6.1139 2.19995,-1.2126 4.24648,-2.22535 4.55003,-2.25025 0.30355,-0.0249 0.21468,2.98877 -0.19813,6.70122 -0.4128,3.7125 -0.77849,7.79683 -0.80669,9.07178 l -0.0495,2.31393 -2.90127,-2.06627 c -5.18434,-3.69156 -5.44403,-2.36379 -0.94822,4.86847 5.7,9.16934 7.98355,6.42358 8.97271,-10.77715 0.40042,-6.96278 1.53167,-16.63182 2.51207,-21.49061 1.59605,-7.90984 1.62734,-9.112 0.29013,-11.49893 -1.16644,-2.08208 -6.78393,-5.06997 -8.93732,-5.01707 z" />
    <path
       id="path3006"
       style="fill:#909090"
       transform="matrix(0.41556411,0,0,0.41556411,367.77226,466.25756)"
       d="m 680.00283,677.47398 -16.25418,4.28114 c -8.93745,2.35587 -16.56932,4.57342 -16.9618,4.92508 -0.63506,0.56901 -16.7849,106.08812 -16.7849,109.66794 0,1.241 7.06595,1.44356 50.00088,1.44356 42.93493,0 49.9938,-0.20256 49.9938,-1.44356 0,-3.57982 -16.14983,-109.09893 -16.78489,-109.66794 -0.39248,-0.35166 -8.02436,-2.56921 -16.96181,-4.92508 z m 0,3.34708 c 2.19618,0 30.91017,7.46219 31.50353,8.18723 0.36061,0.44068 15.50401,103.07978 15.49701,105.03299 -0.006,1.64175 -2.90798,1.74784 -47.00054,1.74784 -44.09256,0 -47.00162,-0.10609 -47.00762,-1.74784 -0.007,-1.95321 15.14348,-104.59231 15.50409,-105.03299 0.59336,-0.72504 29.30735,-8.18723 31.50353,-8.18723 z m 13.21846,12.10748 c -0.74953,-0.0355 -1.75499,0.0467 -3.12063,0.21937 -16.17552,2.04505 -20.6136,2.31745 -24.31404,1.48601 -5.20274,-1.16893 -6.00455,-0.29182 -2.48377,2.73852 2.05653,1.7701 3.99563,2.42008 7.25317,2.42008 4.38109,0 4.44389,0.0483 4.44389,3.37538 0,2.92292 -0.38656,3.44703 -2.89419,3.94855 -1.5925,0.31849 -4.63076,0.34108 -6.75076,0.0495 l -3.85656,-0.52365 2.80928,2.57576 c 2.02392,1.858 3.90554,2.57576 6.75075,2.57576 h 3.94148 v 4.35898 4.35898 l -5.04538,0.59441 c -2.77462,0.32861 -6.17838,0.17318 -7.56452,-0.35382 -1.38614,-0.52696 -3.85764,-0.96237 -5.49118,-0.96237 -2.68601,0 -2.86203,0.19502 -1.86814,2.05212 0.60445,1.12943 2.52879,2.92958 4.28114,3.99809 3.88117,2.36652 4.31994,2.37965 9.81478,0.27597 3.43768,-1.31609 7.533,-1.65065 19.10591,-1.56385 8.10204,0.0608 14.96211,-0.27117 15.24935,-0.73593 0.90159,-1.45881 -0.49891,-3.712 -3.02156,-4.8614 -1.53312,-0.69853 -5.39861,-0.87466 -10.50118,-0.48118 l -8.07401,0.62271 0.64394,-2.90127 c 1.17002,-5.29934 1.27949,-5.40626 5.88037,-5.40626 5.22442,0 6.30661,-1.04009 3.6089,-3.48153 -1.42954,-1.29372 -2.83335,-1.58569 -5.36381,-1.11097 -3.33075,0.62486 -3.43915,0.53881 -3.84241,-2.91542 -0.22828,-1.95515 -0.20854,-3.76113 0.0495,-4.01932 0.25819,-0.25819 2.32447,-0.47411 4.58542,-0.47411 4.82803,0 8.75313,-2.31201 7.86173,-4.63495 -0.30105,-0.78451 -0.83829,-1.16502 -2.0875,-1.2242 z m 4.77648,37.95001 c -1.32998,-0.042 -3.00218,0.43737 -5.34258,1.41525 -1.9745,0.825 -5.89032,1.50017 -8.70381,1.50017 -5.80972,0 -6.29681,1.49776 -1.3091,4.04055 2.47276,1.26061 2.86369,1.89716 2.1441,3.50982 -0.48387,1.08439 -2.42187,3.02795 -4.30236,4.31652 -3.48054,2.3849 -5.11518,5.2998 -3.99102,7.11873 1.13321,1.83353 5.33116,1.05391 7.21779,-1.34449 1.42848,-1.81602 2.56432,-2.25812 4.93216,-1.9106 1.91882,0.28162 4.616,-0.33601 7.17533,-1.64169 4.87638,-2.48777 6.18465,-2.61208 6.18465,-0.58025 0,1.96924 -5.25493,5.13867 -9.87138,5.95113 -6.77757,1.19287 -10.49278,2.69223 -9.00101,3.6372 1.93808,1.22774 8.9807,1.10286 12.79388,-0.22644 2.3588,-0.82232 3.52765,-0.82445 4.33775,-0.0141 0.60916,0.60916 0.81897,1.38882 0.47411,1.73369 -0.34487,0.34486 -5.8316,1.34012 -12.19948,2.21487 -9.08215,1.24761 -12.49135,1.35052 -15.80129,0.46703 -2.32075,-0.61945 -4.42026,-0.9294 -4.66326,-0.6864 -0.243,0.243 0.48425,1.67375 1.61339,3.17725 2.18498,2.90939 6.12071,3.51201 13.06278,1.9955 3.1621,-0.69078 3.25508,-0.61898 3.25508,2.64652 0,3.16859 -0.272,3.42291 -4.74817,4.55004 -4.06915,1.02462 -4.47362,1.3403 -2.87297,2.2361 2.05912,1.15234 9.58501,0.42827 12.65944,-1.21712 1.07783,-0.57683 1.96013,-1.78206 1.96013,-2.6819 0,-2.15054 -2.88718,-5.28993 -4.90385,-5.32843 -3.76208,-0.0717 1.64595,-1.72174 7.55745,-2.30686 7.14136,-0.70686 7.34516,-0.4813 7.34516,7.92542 v 5.41334 l -7.25317,0.0566 -7.2461,0.0566 4.99584,2.33517 c 2.75,1.2806 6.2621,3.94932 7.79805,5.93698 3.3756,4.36841 6.32964,4.69416 7.82635,0.86331 1.13642,-2.90888 0.65816,-18.34764 -0.67225,-21.63214 -0.71763,-1.7717 -0.36866,-1.83832 5.89453,-1.16759 6.28363,0.67292 6.65876,0.59637 6.65876,-1.34449 0,-3.41715 -4.03985,-5.33041 -8.93024,-4.2316 -3.72618,0.83721 -4.42407,0.68499 -6.51724,-1.40818 -2.29379,-2.29379 -2.3062,-2.38459 -0.45288,-4.06177 2.86148,-2.58965 2.49792,-7.22524 -0.66517,-8.42784 -3.90486,-1.48458 -7.11557,-1.1791 -11.57677,1.09683 -2.23139,1.13832 -4.20797,1.92008 -4.39436,1.73368 -0.1864,-0.1864 -0.0913,-2.1949 0.21229,-4.45805 l 0.55195,-4.11131 6.12097,-0.69347 c 6.74102,-0.76267 8.38012,-2.07753 5.94406,-4.7694 -0.97986,-1.08273 -1.96756,-1.64215 -3.29754,-1.68415 z m -36.83903,3.82118 c -1.67209,-0.11499 -2.85519,0.5282 -2.46962,2.00258 0.27531,1.05279 1.48956,2.85091 2.70314,3.99102 2.85499,2.68211 2.50128,9.10007 -0.50242,9.10007 -1.27743,0 -1.88936,-0.70989 -1.88936,-2.18656 0,-3.00927 -3.82546,-6.81445 -6.84983,-6.81445 h -2.49792 l 2.03797,2.25026 c 1.12311,1.23745 2.31021,3.98191 2.63237,6.09974 l 0.58733,3.84948 -3.87072,-0.36796 c -3.47476,-0.33137 -3.76172,-0.18359 -2.88711,1.45063 1.84911,3.4552 5.48617,4.27274 9.62371,2.16534 2.04794,-1.04307 4.02514,-2.04581 4.39436,-2.22902 0.36923,-0.18325 0.4444,0.52802 0.16983,1.578 -1.05205,4.02324 -11.706,6.68121 -16.49477,4.11839 -2.56802,-1.37439 -3.24885,-0.6702 -2.44838,2.51915 0.39614,1.57833 1.57134,2.76716 3.12063,3.15601 1.36662,0.343 2.48377,0.74615 2.48377,0.89161 0,0.14546 -0.937,2.37547 -2.08042,4.96046 -2.18382,4.93689 -2.00301,7.55745 0.52364,7.55745 2.3067,0 4.67342,-4.38437 4.73402,-8.77457 0.0505,-3.65933 0.37156,-4.09452 4.55711,-6.12804 2.47775,-1.20378 4.64776,-2.05346 4.81894,-1.88229 0.17117,0.17118 -0.0927,3.46122 -0.58733,7.30271 -0.49468,3.84144 -0.91607,7.75278 -0.93407,8.69673 -0.0297,1.55721 -0.35538,1.52698 -3.53105,-0.34674 -4.32198,-2.55003 -4.40165,-1.44501 -0.35382,5.0666 5.82785,9.37501 8.02426,6.47536 8.97978,-11.84566 0.39312,-7.53773 1.42535,-16.44507 2.29271,-19.79231 2.16092,-8.33918 1.99409,-10.96963 -0.87745,-13.84117 -1.55484,-1.55484 -3.71295,-2.43247 -5.38504,-2.54746 z" />
    <path
       id="path3004"
       style="fill:#6f6f6f"
       transform="matrix(0.41556411,0,0,0.41556411,367.77226,466.25756)"
       d="m 680.00283,677.59428 -16.25418,4.26699 c -8.93745,2.34403 -16.54724,4.52518 -16.91227,4.84724 -0.56024,0.49431 -16.83443,106.83439 -16.83443,110.00052 0,0.76188 14.80156,1.08267 50.00088,1.08267 35.19927,0 49.9938,-0.32079 49.9938,-1.08267 0,-3.16613 -16.27419,-109.50621 -16.83443,-110.00052 -0.36503,-0.32206 -7.97482,-2.50321 -16.91227,-4.84724 z m 0,2.34932 15.59608,4.35898 c 8.58089,2.39642 15.74213,4.49706 15.90745,4.67033 0.45869,0.4808 15.50301,101.99488 15.49701,104.56596 l -0.007,2.25025 h -46.99347 -47.00055 l -0.007,-2.25025 c -0.006,-2.57108 15.0454,-104.08516 15.50409,-104.56596 0.16532,-0.17327 7.31953,-2.27391 15.90037,-4.67033 z m 11.71122,13.04156 c -0.49744,0.003 -1.0476,0.0482 -1.65585,0.13444 -16.36174,2.31934 -20.38426,2.60872 -24.27866,1.73369 -5.35257,-1.20264 -6.01886,-0.52961 -2.47669,2.51915 2.05653,1.7701 3.99563,2.42008 7.25317,2.42008 4.39579,0 4.44389,0.0368 4.44389,3.43199 0,4.13892 -1.97627,5.0613 -8.84533,4.13254 l -4.65618,-0.62979 2.80928,2.5333 c 1.97419,1.78031 3.94321,2.5333 6.64461,2.5333 3.78029,0 3.84361,0.0609 4.28114,4.24576 0.24437,2.3375 0.37692,4.35704 0.29012,4.48635 -0.42582,0.63464 -12.54567,0.47682 -16.2754,-0.21228 -6.00545,-1.10955 -5.21796,2.61482 1.2525,5.92991 3.73701,1.91461 3.76495,1.91172 8.27922,-0.15568 2.97471,-1.36231 6.81752,-1.70994 19.21914,-1.74784 12.55428,-0.0383 15.50409,-0.31603 15.50409,-1.44356 0,-0.76564 -1.16561,-2.26245 -2.58991,-3.32584 -2.36922,-1.76888 -3.25888,-1.83659 -10.40919,-0.84208 -4.29848,0.59787 -8.02076,0.88118 -8.27215,0.62979 -0.25138,-0.25138 -0.0535,-2.16746 0.43873,-4.25991 0.86505,-3.67753 1.05154,-3.81669 5.61148,-4.11131 3.09191,-0.19978 4.71987,-0.76053 4.71987,-1.62754 0,-2.4496 -2.69717,-3.71389 -6.42525,-3.01449 -3.05804,0.57369 -3.57597,0.3959 -3.58767,-1.19589 -0.008,-1.02371 -0.29107,-2.87381 -0.62271,-4.11131 -0.56518,-2.10893 -0.29204,-2.25025 4.29529,-2.25025 5.96569,0 10.11205,-2.35961 8.19432,-4.67033 -0.63734,-0.7679 -1.64959,-1.14157 -3.14186,-1.1322 z m 6.58092,38.03491 c -0.27711,-0.0188 -0.56745,-0.0184 -0.87038,0.007 -0.80781,0.0688 -1.70047,0.29711 -2.64652,0.70055 -1.80149,0.76822 -6.11406,1.58772 -9.58126,1.8186 -6.96319,0.46367 -7.70017,1.75248 -2.42009,4.24576 1.74715,0.825 3.18658,1.82278 3.19848,2.21487 0.0119,0.3921 -2.24225,2.88709 -5.01708,5.54779 -3.59242,3.44472 -4.85872,5.32836 -4.39435,6.53847 0.92319,2.40593 4.12106,2.106 6.87105,-0.64394 1.74691,-1.74692 3.1298,-2.22763 5.43457,-1.88936 2.01597,0.29583 4.3331,-0.2795 6.66584,-1.65585 4.17258,-2.46192 6.4677,-2.7033 6.4677,-0.67225 0,1.88669 -3.61435,4.38101 -8.00325,5.51949 -1.925,0.49934 -5.48635,1.42552 -7.91834,2.05919 -3.24447,0.84536 -4.04353,1.39184 -3.00034,2.05212 2.05489,1.30058 8.82426,1.04994 13.11232,-0.48119 3.19123,-1.13948 3.77488,-1.10992 4.27406,0.19106 0.31796,0.82859 0.39286,1.69465 0.16276,1.92475 -0.23009,0.23009 -4.62701,1.09353 -9.77232,1.92474 -9.1964,1.48565 -17.73324,1.47478 -21.03773,-0.0283 -1.33381,-0.60671 -1.56529,-0.34945 -1.14636,1.25249 0.9093,3.47719 3.90798,5.42519 7.52915,4.88263 1.81198,-0.2715 7.98111,-1.24876 13.70672,-2.16534 5.72556,-0.91657 11.03394,-1.42468 11.79613,-1.1322 1.0349,0.39713 1.3108,2.24461 1.08975,7.29563 l -0.29721,6.7649 -6.24834,-0.33966 c -3.4375,-0.18811 -6.24834,-0.0753 -6.24834,0.25475 0,0.33006 1.79651,1.31982 3.99809,2.20072 2.20158,0.8809 5.40807,3.37897 7.1258,5.54779 3.93405,4.96716 6.84106,4.90934 8.17308,-0.16276 0.97453,-3.71078 0.39452,-17.20334 -0.87745,-20.40794 -0.71317,-1.79671 -0.37125,-1.86832 5.91575,-1.2242 5.61117,0.57488 6.66584,0.44391 6.66584,-0.84207 0,-1.56907 -3.41419,-5.52949 -4.75525,-5.51949 -0.4125,0.003 -2.48041,0.48717 -4.59957,1.0756 -3.43987,0.95511 -4.00937,0.84803 -5.3072,-1.00483 -0.79953,-1.14149 -2.16866,-2.08043 -3.04279,-2.08043 -1.16515,0 -0.88543,-0.6506 1.05436,-2.44838 7.05695,-6.54016 -1.34591,-12.51797 -10.61439,-7.55038 -4.94483,2.65022 -7.17099,2.67352 -5.77423,0.0637 0.56935,-1.06384 1.03313,-3.02457 1.03313,-4.35898 0,-2.21458 0.55055,-2.49973 6.25542,-3.31169 5.14961,-0.73294 6.24834,-1.22288 6.24834,-2.78097 0,-2.04502 -1.26574,-3.25054 -3.20555,-3.38246 z m -37.73064,3.94148 c -2.29814,0.11024 -2.29526,2.45246 0.94822,5.83792 1.99274,2.07997 2.38041,3.26237 1.88936,5.71762 -0.79647,3.98238 -4.40143,5.3217 -4.40143,1.63462 0,-3.05704 -4.17222,-7.35932 -7.13288,-7.35932 h -2.21487 l 2.03797,2.25026 c 1.12311,1.23745 2.29796,3.93817 2.61114,6.00067 0.56433,3.71635 0.54047,3.75042 -2.86589,3.75042 -3.96285,0 -4.3878,1.21327 -1.21004,3.43906 3.06128,2.1442 4.90153,1.96038 9.13546,-0.91284 2.00175,-1.35838 3.6372,-2.06644 3.6372,-1.578 0,5.33507 -10.11469,8.85496 -17.43592,6.07143 -2.10974,-0.80212 -2.5616,-0.68197 -2.5616,0.67225 0,2.09299 2.8642,5.30719 4.73402,5.30719 0.78559,0 1.28016,0.33502 1.09682,0.75009 -3.10383,7.02722 -4.01666,10.46142 -3.04987,11.42816 2.69424,2.6943 6.21021,-2.10727 6.22711,-8.49859 0.007,-2.80568 0.61562,-3.49929 5.08783,-5.86622 l 5.07368,-2.68898 -0.63686,5.1869 c -0.35063,2.85276 -0.88803,7.09345 -1.19589,9.42558 l -0.55902,4.23869 -2.85881,-1.68416 c -1.57142,-0.92822 -3.11187,-1.43109 -3.42492,-1.11804 -0.31305,0.313 0.86487,2.87586 2.61822,5.69639 5.78696,9.30923 8.00298,6.1319 8.98686,-12.87173 0.38442,-7.42495 1.46974,-16.52588 2.413,-20.22396 2.04971,-8.03593 1.45651,-11.22699 -2.47669,-13.26092 -1.90747,-0.98639 -3.42759,-1.39459 -4.4722,-1.34449 z m 27.24362,30.83128 c -1.44181,0 -1.81966,0.62102 -1.59924,2.64653 0.2514,2.31007 -0.2455,2.8251 -3.96271,4.083 -2.34088,0.79216 -4.00469,1.85338 -3.6938,2.3564 1.50291,2.4318 13.06197,-0.29932 14.01807,-3.31169 0.74018,-2.33209 -2.09855,-5.77424 -4.76232,-5.77424 z" />
    <path
       id="path3002"
       style="fill:#4f4f4f"
       transform="matrix(0.41556411,0,0,0.41556411,367.77226,466.25756)"
       d="m 680.00283,677.69335 -16.57261,4.45805 c -9.11499,2.4502 -16.70326,4.60858 -16.86274,4.7977 -0.15948,0.18912 -3.77009,23.69168 -8.0174,52.22991 -4.24735,28.53817 -7.965,53.40233 -8.26508,55.25146 l -0.54487,3.36123 h 50.2627 50.25563 l -0.54488,-3.36123 c -0.30008,-1.84913 -4.01777,-26.71329 -8.26507,-55.25146 -4.24736,-28.53823 -7.85085,-52.04079 -8.01033,-52.22991 -0.15948,-0.18912 -7.74775,-2.3475 -16.86274,-4.7977 z m 0,2.25733 15.42625,4.18207 c 8.48535,2.29985 15.66987,4.42568 15.97113,4.72694 0.30126,0.30127 3.94323,23.4695 8.08817,51.4869 4.145,28.0174 7.76684,51.95478 8.04571,53.19228 l 0.50242,2.25025 h -48.03368 -48.04076 l 0.50949,-2.25025 c 0.27887,-1.2375 3.89364,-25.17488 8.03864,-53.19228 4.14499,-28.0174 7.78691,-51.18563 8.08817,-51.4869 0.30126,-0.30126 7.48582,-2.42709 15.97113,-4.72694 z m 11.09558,13.48736 c -2.50868,-0.0349 -6.53761,0.42756 -12.82927,1.37279 -6.05652,0.90991 -9.34959,0.94733 -12.46837,0.15568 -2.33087,-0.59164 -4.37396,-0.93324 -4.54296,-0.76424 -0.169,0.169 0.51726,1.32696 1.52847,2.57576 1.34602,1.66226 3.22975,2.40198 7.02673,2.76682 l 5.1869,0.50242 v 4.00516 4.01224 l -6.7366,-0.53779 -6.74368,-0.54487 2.79512,2.40592 c 1.92984,1.65999 4.02019,2.40593 6.74368,2.40593 3.69126,0 3.94148,0.18439 3.94148,2.91543 0,1.60497 0.24845,3.56806 0.55195,4.35897 0.79947,2.08338 -9.13053,3.09499 -14.98753,1.52848 -2.47528,-0.66208 -4.77119,-0.93227 -5.10198,-0.60149 -1.04954,1.04954 1.8945,4.71759 5.02414,6.2625 3.71266,1.83269 2.48675,1.90451 9.79355,-0.58026 5.58977,-1.9008 7.5524,-2.04817 19.38189,-1.45063 14.18338,0.71644 16.30738,0.0886 12.53914,-3.67966 -2.27321,-2.27317 -4.75659,-2.50106 -14.08884,-1.29495 l -6.38987,0.82792 0.72886,-3.88487 c 0.99936,-5.327 1.08474,-5.40626 6.10681,-5.40626 3.23346,0 4.4439,-0.39826 4.4439,-1.46479 0,-2.13826 -3.39899,-3.60559 -6.77906,-2.92957 -2.67993,0.53594 -2.99287,0.30616 -3.58059,-2.63237 -0.97816,-4.89075 -0.92516,-4.97462 3.29046,-4.97462 5.51641,0 9.29169,-1.59529 8.86656,-3.75042 -0.20428,-1.03559 -1.19221,-1.56434 -3.70089,-1.59923 z m 6.86398,37.42636 c -1.24822,-0.006 -2.74345,0.45361 -4.52881,1.37987 -1.53803,0.79793 -5.19163,1.75036 -8.11648,2.1158 -6.04023,0.75468 -6.63427,1.6753 -2.31393,3.58767 1.64995,0.73036 3.00033,1.68312 3.00033,2.1158 0,0.43268 -2.26048,2.97594 -5.01707,5.64686 -3.40991,3.30392 -4.81547,5.37031 -4.39436,6.4677 0.90375,2.35513 4.16938,1.96991 6.72953,-0.79254 1.63121,-1.7601 2.94457,-2.26827 4.8897,-1.89644 1.63273,0.31213 4.38211,-0.35635 7.13995,-1.73368 2.55772,-1.27742 5.22801,-1.95325 6.20588,-1.57801 1.61417,0.61942 1.61224,0.76874 -0.0425,2.59699 -1.83361,2.02611 -6.58005,3.96652 -14.93092,6.10682 -3.87335,0.99269 -4.51169,1.42443 -3.00033,2.01673 3.08582,1.20934 7.86312,0.99715 12.21363,-0.5378 3.62042,-1.27731 4.10763,-1.25967 4.65618,0.16984 0.89463,2.33131 -0.7089,2.93789 -11.36448,4.29529 -9.36366,1.19283 -15.88846,1.04029 -19.26866,-0.45288 -1.32908,-0.58712 -1.56381,-0.32253 -1.14636,1.27372 0.2897,1.10783 1.38097,2.78949 2.42716,3.73627 1.79701,1.62628 2.41534,1.63034 11.15219,0.0212 5.08648,-0.93672 11.72194,-1.79864 14.74694,-1.91059 l 5.49825,-0.20521 0.58026,6.00067 c 0.7678,7.91826 -0.0483,8.90213 -6.79322,8.1094 -6.02739,-0.70841 -6.93343,0.39872 -1.83275,2.24317 1.89974,0.68695 4.86653,3.02752 6.588,5.20106 3.41141,4.3072 4.98711,4.82265 7.06919,2.31394 1.52949,-1.84292 1.87262,-13.18285 0.60856,-20.25935 l -0.78547,-4.38728 6.02898,0.54487 c 6.09565,0.55274 7.47648,0.0401 6.52432,-2.44131 -1.1325,-2.95125 -4.31769,-3.95149 -8.55521,-2.6819 -3.68806,1.10494 -4.12654,1.02936 -5.52656,-0.96945 -0.83574,-1.19319 -2.23235,-2.17242 -3.10648,-2.17242 -1.16515,0 -0.88543,-0.6506 1.05436,-2.44838 6.70289,-6.21203 -1.24586,-12.19077 -10.16151,-7.64237 -2.25916,1.15254 -4.80703,2.09458 -5.65394,2.09458 -1.73064,0 -2.0647,-1.56132 -0.53779,-2.505 0.55,-0.33992 0.99775,-1.9196 0.99775,-3.50983 0,-2.79622 0.20112,-2.90776 6.08559,-3.57351 6.33789,-0.71706 8.14913,-2.2255 5.90868,-4.92508 -0.779,-0.93865 -1.78043,-1.40923 -3.02864,-1.41525 z m -37.61742,3.98393 c -1.98292,0.16466 -1.74441,2.31619 1.15343,5.76008 3.53388,4.19978 3.23255,8.00568 -0.75008,9.47512 -1.37383,0.50688 -1.74784,0.10552 -1.74784,-1.86814 0,-2.78082 -4.03559,-7.423 -6.45355,-7.423 -1.90618,0 -1.96285,0.86466 -0.18399,2.9225 0.7506,0.86831 1.62408,3.26593 1.9389,5.32843 0.56738,3.71695 0.541,3.75042 -2.86589,3.75042 -4.04136,0 -4.40418,1.31811 -0.9836,3.55936 2.74142,1.79625 5.44012,1.30924 9.80063,-1.76199 2.73485,-1.92629 2.74559,-1.9277 2.74559,0.10614 0,2.28973 -2.71897,4.31063 -8.12355,6.0219 -2.87485,0.91027 -4.48884,0.84951 -7.75559,-0.27597 -3.67073,-1.26467 -4.11838,-1.2496 -4.11838,0.13445 0,1.97497 2.89219,5.2152 4.65618,5.2152 1.71629,0 1.72306,-0.0473 -0.69348,5.59025 -2.15588,5.02959 -2.00243,7.40885 0.48119,7.40885 2.06307,0 4.55711,-5.15067 4.55711,-9.41143 0,-3.23669 0.39725,-3.69953 5.10199,-5.95114 l 5.10199,-2.44838 -0.62979,5.65393 c -0.34782,3.10937 -0.8909,7.37008 -1.20297,9.46096 -0.55806,3.73918 -0.60741,3.76936 -2.93665,2.24318 -3.6895,-2.41748 -4.90328,-1.90401 -2.85881,1.20297 0.99528,1.51245 2.43315,3.98575 3.1914,5.49825 0.75825,1.5125 2.00145,2.75267 2.76682,2.75267 2.72249,0 3.88738,-4.59814 4.55003,-18.00202 0.3671,-7.42495 1.45287,-16.54002 2.41301,-20.25226 2.01393,-7.78663 1.12006,-11.68577 -3.11356,-13.61474 -1.78114,-0.81152 -3.13922,-1.15043 -4.04054,-1.07559 z m 27.46298,30.9445 c -1.45583,0 -1.8218,0.6194 -1.59924,2.73852 0.25629,2.44025 -0.18585,2.89097 -4.06177,4.12546 -3.16774,1.00893 -3.98504,1.63221 -3.00034,2.29271 2.9761,1.99625 13.85533,-1.41981 13.85533,-4.3519 0,-1.87561 -3.16727,-4.80479 -5.19398,-4.80479 z" />
    <path
       id="path3000"
       style="fill:#2f2f2f"
       transform="matrix(0.41556411,0,0,0.41556411,367.77226,466.25756)"
       d="m 680.00283,677.84195 -16.6363,4.43682 c -9.1471,2.44103 -16.71464,4.56993 -16.82028,4.72694 -0.10564,0.15701 -3.69218,23.907 -7.96787,52.78185 -4.27569,28.8749 -8.01019,53.73897 -8.30046,55.25147 l -0.53072,2.75267 h 50.25563 50.24855 l -0.53072,-2.75267 c -0.29027,-1.5125 -4.02477,-26.37657 -8.30046,-55.25147 -4.27564,-28.87485 -7.86223,-52.62484 -7.96787,-52.78185 -0.10564,-0.15701 -7.67318,-2.28591 -16.82028,-4.72694 z m 0,1.96013 15.24935,4.13961 c 8.38745,2.27568 15.60712,4.45671 16.04896,4.84724 0.44189,0.39052 4.15765,23.38682 8.258,51.10478 4.1004,27.71796 7.71765,51.63732 8.03156,53.14982 l 0.56611,2.74559 h -48.15398 -48.16105 l 0.57317,-2.74559 c 0.31391,-1.5125 3.92409,-25.43186 8.02449,-53.14982 4.10035,-27.71796 7.81611,-50.71426 8.258,-51.10478 0.44189,-0.39053 7.66859,-2.57156 16.05604,-4.84724 z m 12.36931,13.16892 c -1.7509,0.0681 -5.09763,0.65437 -11.81736,1.82568 -6.78163,1.1821 -14.28364,0.9744 -17.81803,-0.49534 -1.36445,-0.56738 -1.61512,-0.36405 -1.12513,0.91284 0.89146,2.3231 5.67313,4.57834 9.71571,4.57834 3.04994,0 3.49403,0.34559 4.06178,3.18432 0.35057,1.75312 0.21166,3.60952 -0.30428,4.12546 -0.51595,0.51589 -3.6717,0.74409 -7.01258,0.50242 -3.34094,-0.24166 -6.07144,-0.2939 -6.07144,-0.11322 0,1.22743 7.13004,4.28929 9.99876,4.29529 3.46484,0.007 3.50068,0.0547 3.52398,4.40851 l 0.0212,4.39436 -4.918,0.65809 c -2.89595,0.38417 -6.91484,0.14139 -9.75817,-0.58733 -2.65823,-0.68128 -5.13932,-0.93212 -5.51241,-0.55902 -0.9969,0.9969 2.69297,4.77308 6.07144,6.21296 2.48826,1.0605 3.76453,0.953 8.49859,-0.7147 4.74094,-1.67023 7.65991,-1.91377 19.57295,-1.63462 11.92348,0.27939 14.00392,0.10287 14.00392,-1.17466 0,-2.67392 -5.94693,-4.84057 -10.74177,-3.91318 -2.34381,0.45336 -5.88968,0.84639 -7.87588,0.87039 l -3.60889,0.0425 1.03313,-4.5005 c 1.02299,-4.4705 1.05568,-4.5005 5.30012,-4.5005 2.34988,0 4.5902,-0.52001 4.98169,-1.15344 1.1707,-1.89419 -2.65062,-3.92558 -6.14927,-3.26923 -2.9973,0.5623 -3.20653,0.39131 -4.16084,-3.3683 l -1.00483,-3.95563 5.97944,-0.5378 c 6.5035,-0.58972 8.36007,-1.6634 7.36639,-4.25283 -0.34397,-0.89638 -0.49936,-1.34895 -2.25025,-1.28081 z m 6.08559,38.16937 c -1.15111,-0.0366 -2.5828,0.30766 -4.23869,1.05436 -2.17597,0.98125 -6.38194,2.10788 -9.34066,2.505 l -5.37797,0.72178 3.24093,1.93182 c 1.78402,1.06399 3.25108,2.34469 3.25508,2.84466 0.003,0.49997 -2.06437,2.80922 -4.59249,5.13029 -2.98513,2.74064 -4.47122,4.87101 -4.23868,6.07851 0.53642,2.78579 3.23423,2.78615 5.91575,0 1.74463,-1.81267 3.07967,-2.33628 4.99585,-1.95305 1.69065,0.33815 4.47922,-0.41572 7.89003,-2.14411 3.81288,-1.93208 5.5792,-2.37452 6.36864,-1.58508 2.07989,2.07989 -3.45649,6.0407 -11.25126,8.04571 -3.99402,1.02736 -7.50064,2.10146 -7.79097,2.39178 -1.47169,1.4717 5.7948,1.80631 10.82669,0.49534 5.22611,-1.36159 5.72783,-1.3464 6.7366,0.2689 1.32727,2.12525 0.83782,2.30633 -10.70639,3.94147 -4.59055,0.65025 -11.22508,0.94788 -14.74693,0.66517 -7.12505,-0.57193 -8.52098,0.82372 -3.87072,3.87072 2.35226,1.54126 3.09099,1.54351 10.25351,0.0354 4.24374,-0.89362 10.68113,-1.90823 14.3082,-2.25733 l 6.59508,-0.63686 0.63687,6.09266 c 0.89777,8.58978 0.52094,9.14557 -6.18466,9.19207 -5.62981,0.039 -5.63212,0.0392 -2.51915,1.39402 1.71613,0.74691 4.60475,3.20632 6.41817,5.46288 3.52589,4.38745 5.00971,4.95607 6.92059,2.6536 1.42096,-1.71215 1.85328,-12.94101 0.77839,-20.10367 l -0.75716,-5.05245 5.76008,0.67224 c 7.02158,0.82196 8.56902,-0.22105 5.22228,-3.52397 -2.28613,-2.25624 -2.76996,-2.34615 -6.70122,-1.28081 -3.87431,1.04989 -4.41388,0.9532 -6.2908,-1.06144 -1.12883,-1.21165 -2.56699,-2.20072 -3.19847,-2.20072 -0.63147,0 0.0988,-1.30569 1.62754,-2.90126 3.3662,-3.5136 3.08474,-6.10083 -0.88454,-8.00326 -2.61732,-1.25447 -3.49311,-1.21473 -7.49376,0.32551 -2.48954,0.95846 -5.60719,1.99504 -6.93474,2.30686 -2.07148,0.48654 -2.30439,0.29842 -1.61339,-1.33034 0.44283,-1.04379 1.01609,-3.12189 1.27373,-4.6208 0.48095,-2.79796 1.71068,-3.30452 9.75109,-4.01224 2.18261,-0.19211 3.00034,-0.7754 3.00034,-2.15118 0,-2.08036 -1.12433,-3.20121 -3.04279,-3.26216 z m -38.10569,3.70796 c -1.99844,0.15535 -1.7606,2.30536 1.14636,5.76008 3.34261,3.97246 3.31613,7.92123 -0.0637,9.20622 -3.35284,1.27477 -3.32943,1.28562 -2.75266,-0.91991 0.69922,-2.67385 -1.34326,-6.02776 -4.38021,-7.18241 -3.22443,-1.22592 -4.08917,-0.466 -2.0875,1.82567 0.84363,0.96587 1.83822,3.44284 2.2078,5.50534 l 0.66516,3.75042 h -3.62304 c -4.24214,0 -4.29749,1.77479 -0.11322,3.8141 2.41689,1.17799 3.18258,1.05693 7.17533,-1.17466 l 4.4722,-2.50499 v 2.30686 c 0,1.82859 -1.08832,2.77855 -5.25059,4.57127 -4.66226,2.00802 -5.73712,2.12895 -9.6308,1.08974 -2.41143,-0.64358 -4.61418,-0.94068 -4.88969,-0.66517 -0.87112,0.87111 2.75197,5.56194 4.29529,5.56194 1.81366,0 1.85343,-0.50716 -0.48826,5.65394 -1.54584,4.06713 -1.69618,5.38427 -0.71471,6.19881 2.50904,2.08227 5.68224,-2.88662 5.68224,-8.90194 0,-2.49718 0.71702,-3.2876 4.99585,-5.4558 l 5.00291,-2.53331 -0.0212,2.76682 c -0.0273,3.75165 -1.73992,15.36173 -2.3564,15.97821 -0.273,0.27299 -1.52302,-0.2228 -2.78097,-1.1039 -3.41278,-2.3904 -4.29786,-1.94387 -2.26441,1.14636 0.99528,1.51245 2.43315,3.98575 3.1914,5.49825 0.75825,1.5125 2.00145,2.75267 2.76682,2.75267 2.70384,0 3.83256,-4.65902 4.59249,-18.99977 0.42261,-7.97495 1.46143,-16.9796 2.30686,-20.0046 1.85154,-6.6244 0.79405,-11.11518 -3.01448,-12.85049 -1.79303,-0.81696 -3.16045,-1.16036 -4.06886,-1.08975 z m 27.45591,30.9445 c -1.44969,0 -1.82087,0.61873 -1.59924,2.69606 0.25308,2.37212 -0.24812,2.90112 -4.19622,4.38021 -3.4829,1.3048 -4.04891,1.79813 -2.505,2.18656 4.67224,1.1755 13.49444,-1.73939 13.49444,-4.45804 0,-1.87561 -3.16727,-4.80479 -5.19398,-4.80479 z" />
    <path
       id="path2998"
       style="fill:#020202"
       transform="matrix(0.41556411,0,0,0.41556411,367.77226,466.25756)"
       d="m 680.00283,677.95517 -16.12681,4.33775 c -8.86685,2.38739 -16.44233,4.71714 -16.83443,5.17275 -0.39211,0.45561 -4.18889,24.45187 -8.44198,53.32672 -4.25313,28.8749 -7.96184,53.28414 -8.23677,54.24664 -0.47132,1.65 2.36907,1.75492 49.63999,1.75492 47.27092,0 50.10423,-0.10488 49.63291,-1.75492 -0.27493,-0.9625 -3.98364,-25.37174 -8.23677,-54.24664 -4.25309,-28.87485 -8.04987,-52.87111 -8.44198,-53.32672 -0.3921,-0.45561 -7.96759,-2.78536 -16.83443,-5.17275 z m 0,1.72661 15.74469,4.22453 c 8.66245,2.3228 15.88801,4.3235 16.05604,4.44389 0.22545,0.16153 16.17069,105.72927 16.19049,107.19125 0.002,0.1375 -21.59137,0.24767 -47.99122,0.24767 -26.39985,0 -48.0003,-0.11017 -47.9983,-0.24767 0.0198,-1.46198 15.96504,-107.02972 16.19049,-107.19125 0.16803,-0.12039 7.39355,-2.12109 16.05605,-4.44389 z m 12.20655,13.38829 c -0.27695,-0.0113 -0.5766,-0.007 -0.89868,0.007 -1.54602,0.0679 -3.62322,0.42295 -6.29788,1.06851 -7.75495,1.87177 -17.55475,2.14338 -21.69582,0.59441 l -2.81635,-1.05436 2.76682,2.79512 c 2.25691,2.28164 3.63979,2.7962 7.53622,2.8022 l 4.77647,0.007 0.18399,4.2033 0.19106,4.21037 -6.72953,0.29013 -6.72245,0.2972 3.31877,1.81153 c 1.82639,0.99676 4.29969,1.73679 5.49825,1.64169 4.36004,-0.34609 4.67741,-0.045 4.67741,4.4722 v 4.42974 l -5.53363,0.69347 c -3.49895,0.43717 -7.18799,0.22879 -10.02707,-0.5661 -2.47076,-0.69174 -4.76162,-0.99134 -5.08783,-0.66517 -0.32622,0.32621 0.78078,1.96257 2.45546,3.6372 3.50726,3.50726 6.08004,3.77995 13.35291,1.4011 4.05614,-1.32664 7.50925,-1.53862 17.76142,-1.08266 14.34169,0.63784 16.46619,0.11289 13.11232,-3.24093 -2.07889,-2.07889 -2.74847,-2.16612 -11.72537,-1.49309 -9.01642,0.67594 -9.48908,0.61704 -8.95855,-1.16051 0.30811,-1.03234 0.85638,-3.11538 1.21712,-4.62788 0.59053,-2.47592 1.08092,-2.75266 4.98169,-2.75266 2.38287,0 4.63331,-0.47489 4.99584,-1.06144 1.10854,-1.79365 -2.73462,-3.77823 -6.22004,-3.21263 -2.90989,0.47222 -3.28518,0.24223 -3.85656,-2.34932 -0.34836,-1.58001 -0.80718,-3.43796 -1.01898,-4.12546 -0.25267,-0.82015 0.72579,-1.2485 2.83758,-1.2525 5.01629,-0.009 10.71346,-1.91012 10.71346,-3.57351 0,-1.35692 -0.8494,-2.06488 -2.78805,-2.14411 z m 5.51241,38.07738 c -1.03561,-0.0501 -2.1124,0.31442 -3.69381,1.1322 -1.78807,0.92467 -5.68087,1.92995 -8.64719,2.2361 -4.39913,0.45403 -5.18729,0.80879 -4.26699,1.91767 0.62055,0.74768 2.20218,1.35864 3.50983,1.35864 3.53709,0 2.92933,1.58989 -2.69606,7.06919 -4.86669,4.74031 -5.97223,7.74723 -3.18432,8.6755 0.68486,0.22803 2.62081,-0.9579 4.30237,-2.63945 2.5228,-2.52281 3.37489,-2.86281 4.85432,-1.9389 1.42061,0.88719 2.98585,0.57542 7.55037,-1.51432 5.84867,-2.6776 7.55038,-2.69589 7.55038,-0.0778 0,2.20146 -5.47044,5.0747 -13.39537,7.04089 -6.85581,1.70088 -6.99797,1.79421 -3.97686,2.6819 2.24343,0.65919 4.65021,0.4737 8.49859,-0.66517 4.93642,-1.46084 5.46832,-1.45956 6.588,0.0354 0.66988,0.89434 1.02558,1.94667 0.78547,2.33517 -1.06908,1.72981 -26.40311,3.92823 -30.25103,2.62529 -2.87666,-0.97407 -2.94868,0.67437 -0.1486,3.47445 1.64269,1.64269 2.79468,1.95343 5.25059,1.42233 9.17393,-1.98389 18.62069,-3.4577 22.31853,-3.4886 l 4.16792,-0.0354 0.69348,6.41817 c 0.37821,3.5314 0.38121,6.90724 0.0141,7.50084 -0.36686,0.5936 -3.22445,1.09655 -6.35449,1.11805 -5.58134,0.0384 -5.63116,0.0638 -2.68898,1.36572 1.65,0.7301 4.70147,3.18955 6.78614,5.46287 4.13966,4.51439 4.89186,4.82493 6.62338,2.73852 1.28126,-1.54382 1.61661,-13.9048 0.56611,-20.91036 l -0.67225,-4.47928 6.82152,0.54488 6.82152,0.55194 -1.62047,-2.40593 c -1.46255,-2.16455 -2.23708,-2.37642 -7.72728,-2.1158 -4.83528,0.22953 -6.09974,-0.0148 -6.09974,-1.18173 0,-0.80969 -0.94289,-1.77151 -2.09457,-2.13704 -2.06083,-0.65409 -2.05047,-0.71074 0.50241,-3.37537 4.63858,-4.84163 2.86255,-8.09525 -4.41559,-8.09525 -2.53483,0 -5.485,0.65728 -6.55262,1.46479 -1.06757,0.8075 -2.99895,1.48266 -4.29529,1.50016 -1.87216,0.0253 -2.20265,-0.3295 -1.59923,-1.71953 0.41782,-0.9625 0.80272,-2.87076 0.85622,-4.24576 0.1134,-2.91364 1.69482,-3.8372 6.76491,-3.9344 6.86622,-0.13156 9.32157,-2.97738 4.4722,-5.1869 -0.68917,-0.31401 -1.29627,-0.49358 -1.91767,-0.52364 z m -37.16453,3.9344 c -2.40251,-0.063 -2.12284,2.28365 0.94114,5.12321 3.39388,3.14535 3.5475,9.07389 0.25474,9.95631 -3.36172,0.90092 -3.41783,0.86619 -3.41783,-2.31394 0,-3.57209 -1.87674,-6.05728 -4.57834,-6.05728 -1.48314,0 -1.73393,0.32554 -0.96945,1.2525 0.56699,0.6875 1.18493,3.27092 1.37279,5.74592 l 0.33966,4.50051 -3.248,-0.25475 c -3.68494,-0.28777 -3.88503,-0.0214 -1.67708,2.18657 2.17725,2.17721 6.05216,1.96323 10.13321,-0.55903 l 3.45322,-2.12995 -0.33258,2.75266 c -0.2703,2.26331 -1.22054,3.10808 -5.32843,4.7411 -4.30504,1.7114 -5.60803,1.82729 -9.38313,0.84207 -2.41144,-0.62931 -4.5875,-0.93904 -4.83308,-0.69347 -0.87642,0.87643 1.74974,4.49237 3.71503,5.11614 2.34444,0.7441 2.46614,2.06309 0.50242,5.49826 -2.05975,3.6031 -1.93845,7.23136 0.22644,6.81444 2.27901,-0.4389 4.23354,-4.46173 4.28114,-8.80995 0.0354,-3.23696 0.41935,-3.66783 5.13029,-5.73885 l 5.09491,-2.24318 -0.70763,8.73919 c -0.38923,4.80663 -1.0657,9.11755 -1.50724,9.58126 -0.44154,0.4637 -1.99518,0.0662 -3.44614,-0.88453 -1.45096,-0.95071 -2.78259,-1.55649 -2.96496,-1.34449 -0.18231,0.212 1.22245,2.80342 3.12771,5.753 3.05017,4.72191 3.64304,5.18815 4.93924,3.89195 2.17689,-2.17694 3.27127,-8.13967 3.34707,-18.25676 0.0371,-4.95 0.52369,-11.02652 1.08267,-13.50152 0.55899,-2.47495 1.25846,-6.97241 1.55678,-9.99876 0.60327,-6.12038 -0.70121,-8.23213 -5.90869,-9.53172 -0.45247,-0.11294 -0.85267,-0.16791 -1.19588,-0.17691 z m 26.74827,30.72514 c -0.80747,0.0982 -1.11388,0.89992 -0.743,2.37762 0.66919,2.66623 -0.22031,3.50288 -5.56195,5.25059 l -3.50275,1.14635 4.68449,0.10615 c 8.81252,0.19723 13.36185,-3.4207 8.87363,-7.05504 -1.63494,-1.32393 -2.94294,-1.9239 -3.75042,-1.82567 z" />
  </g>
</svg>
